<?xml version="1.0" encoding="utf-8"?>
<!-- Generator: Adobe Illustrator 19.2.1, SVG Export Plug-In . SVG Version: 6.00 Build 0)  -->
<svg version="1.1" id="Layer_1" xmlns="http://www.w3.org/2000/svg" xmlns:xlink="http://www.w3.org/1999/xlink" x="0px" y="0px"
	 viewBox="0 0 600 400" style="enable-background:new 0 0 600 400;" xml:space="preserve">
<style type="text/css">
	.st0{fill:none;stroke:#FFFFFF;stroke-miterlimit:10;}
	.st1{fill:none;stroke:#FFFFFF;stroke-miterlimit:10;stroke-dasharray:1.995,1.995;}
</style>
<g>
	<g>
		<line class="st0" x1="1" y1="1" x2="1" y2="2"/>
		<line class="st1" x1="1" y1="4" x2="1" y2="398"/>
		<line class="st0" x1="1" y1="399" x2="1" y2="400"/>
	</g>
</g>
<g>
	<g>
		<line class="st0" x1="240" y1="1" x2="240" y2="2"/>
		<line class="st1" x1="240" y1="4" x2="240" y2="398"/>
		<line class="st0" x1="240" y1="399" x2="240" y2="400"/>
	</g>
</g>
<g>
	<g>
		<line class="st0" x1="120" y1="1" x2="120" y2="2"/>
		<line class="st1" x1="120" y1="4" x2="120" y2="398"/>
		<line class="st0" x1="120" y1="399" x2="120" y2="400"/>
	</g>
</g>
<g>
	<g>
		<line class="st0" x1="360" y1="1" x2="360" y2="2"/>
		<line class="st1" x1="360" y1="4" x2="360" y2="398"/>
		<line class="st0" x1="360" y1="399" x2="360" y2="400"/>
	</g>
</g>
<g>
	<g>
		<line class="st0" x1="599" y1="1" x2="599" y2="2"/>
		<line class="st1" x1="599" y1="4" x2="599" y2="398"/>
		<line class="st0" x1="599" y1="399" x2="599" y2="400"/>
	</g>
</g>
<g>
	<g>
		<line class="st0" x1="480" y1="1" x2="480" y2="2"/>
		<line class="st1" x1="480" y1="4" x2="480" y2="398"/>
		<line class="st0" x1="480" y1="399" x2="480" y2="400"/>
	</g>
</g>
</svg>
