<?xml version="1.0" encoding="utf-8"?>
<!-- Generator: Adobe Illustrator 19.2.1, SVG Export Plug-In . SVG Version: 6.00 Build 0)  -->
<svg version="1.1" id="Layer_1" xmlns="http://www.w3.org/2000/svg" xmlns:xlink="http://www.w3.org/1999/xlink" x="0px" y="0px"
	 viewBox="0 0 600 400" style="enable-background:new 0 0 600 400;" xml:space="preserve">
<style type="text/css">
	.st0{fill:none;stroke:#4275B1;stroke-miterlimit:10;}
	.st1{fill:none;stroke:#4275B1;stroke-miterlimit:10;stroke-dasharray:1.985,3.97;}
</style>
<g>
	<g>
		<line class="st0" x1="1" y1="1" x2="1" y2="2"/>
		<line class="st1" x1="1" y1="6" x2="1" y2="397"/>
		<line class="st0" x1="1" y1="399" x2="1" y2="400"/>
	</g>
</g>
<g>
	<g>
		<line class="st0" x1="262.6" y1="1" x2="262.6" y2="2"/>
		<line class="st1" x1="262.6" y1="6" x2="262.6" y2="397"/>
		<line class="st0" x1="262.6" y1="399" x2="262.6" y2="400"/>
	</g>
</g>
<g>
	<g>
		<line class="st0" x1="38.4" y1="1" x2="38.4" y2="2"/>
		<line class="st1" x1="38.4" y1="6" x2="38.4" y2="397"/>
		<line class="st0" x1="38.4" y1="399" x2="38.4" y2="400"/>
	</g>
</g>
<g>
	<g>
		<line class="st0" x1="75.8" y1="1" x2="75.8" y2="2"/>
		<line class="st1" x1="75.8" y1="6" x2="75.8" y2="397"/>
		<line class="st0" x1="75.8" y1="399" x2="75.8" y2="400"/>
	</g>
</g>
<g>
	<g>
		<line class="st0" x1="113.1" y1="1" x2="113.1" y2="2"/>
		<line class="st1" x1="113.1" y1="6" x2="113.1" y2="397"/>
		<line class="st0" x1="113.1" y1="399" x2="113.1" y2="400"/>
	</g>
</g>
<g>
	<g>
		<line class="st0" x1="150.5" y1="1" x2="150.5" y2="2"/>
		<line class="st1" x1="150.5" y1="6" x2="150.5" y2="397"/>
		<line class="st0" x1="150.5" y1="399" x2="150.5" y2="400"/>
	</g>
</g>
<g>
	<g>
		<line class="st0" x1="187.9" y1="1" x2="187.9" y2="2"/>
		<line class="st1" x1="187.9" y1="6" x2="187.9" y2="397"/>
		<line class="st0" x1="187.9" y1="399" x2="187.9" y2="400"/>
	</g>
</g>
<g>
	<g>
		<line class="st0" x1="225.2" y1="1" x2="225.2" y2="2"/>
		<line class="st1" x1="225.2" y1="6" x2="225.2" y2="397"/>
		<line class="st0" x1="225.2" y1="399" x2="225.2" y2="400"/>
	</g>
</g>
<g>
	<g>
		<line class="st0" x1="337.4" y1="1" x2="337.4" y2="2"/>
		<line class="st1" x1="337.4" y1="6" x2="337.4" y2="397"/>
		<line class="st0" x1="337.4" y1="399" x2="337.4" y2="400"/>
	</g>
</g>
<g>
	<g>
		<line class="st0" x1="374.8" y1="1" x2="374.8" y2="2"/>
		<line class="st1" x1="374.8" y1="6" x2="374.8" y2="397"/>
		<line class="st0" x1="374.8" y1="399" x2="374.8" y2="400"/>
	</g>
</g>
<g>
	<g>
		<line class="st0" x1="300" y1="1" x2="300" y2="2"/>
		<line class="st1" x1="300" y1="6" x2="300" y2="397"/>
		<line class="st0" x1="300" y1="399" x2="300" y2="400"/>
	</g>
</g>
<g>
	<g>
		<line class="st0" x1="412.1" y1="1" x2="412.1" y2="2"/>
		<line class="st1" x1="412.1" y1="6" x2="412.1" y2="397"/>
		<line class="st0" x1="412.1" y1="399" x2="412.1" y2="400"/>
	</g>
</g>
<g>
	<g>
		<line class="st0" x1="599" y1="1" x2="599" y2="2"/>
		<line class="st1" x1="599" y1="6" x2="599" y2="397"/>
		<line class="st0" x1="599" y1="399" x2="599" y2="400"/>
	</g>
</g>
<g>
	<g>
		<line class="st0" x1="449.5" y1="1" x2="449.5" y2="2"/>
		<line class="st1" x1="449.5" y1="6" x2="449.5" y2="397"/>
		<line class="st0" x1="449.5" y1="399" x2="449.5" y2="400"/>
	</g>
</g>
<g>
	<g>
		<line class="st0" x1="486.9" y1="1" x2="486.9" y2="2"/>
		<line class="st1" x1="486.9" y1="6" x2="486.9" y2="397"/>
		<line class="st0" x1="486.9" y1="399" x2="486.9" y2="400"/>
	</g>
</g>
<g>
	<g>
		<line class="st0" x1="524.2" y1="1" x2="524.2" y2="2"/>
		<line class="st1" x1="524.2" y1="6" x2="524.2" y2="397"/>
		<line class="st0" x1="524.2" y1="399" x2="524.2" y2="400"/>
	</g>
</g>
<g>
	<g>
		<line class="st0" x1="561.6" y1="1" x2="561.6" y2="2"/>
		<line class="st1" x1="561.6" y1="6" x2="561.6" y2="397"/>
		<line class="st0" x1="561.6" y1="399" x2="561.6" y2="400"/>
	</g>
</g>
</svg>
